<?xml version="1.0" encoding="UTF-8" standalone="no"?>
<svg
   xmlns:dc="http://purl.org/dc/elements/1.1/"
   xmlns:cc="http://creativecommons.org/ns#"
   xmlns:rdf="http://www.w3.org/1999/02/22-rdf-syntax-ns#"
   xmlns:svg="http://www.w3.org/2000/svg"
   xmlns="http://www.w3.org/2000/svg"
   version="1.1"
   id="Capa_1"
   x="0px"
   y="0px"
   viewBox="0 0 511.998 511.998"
   style="enable-background:new 0 0 511.998 511.998;"
   xml:space="preserve"><metadata
   id="metadata55"><rdf:RDF><cc:Work
       rdf:about=""><dc:format>image/svg+xml</dc:format><dc:type
         rdf:resource="http://purl.org/dc/dcmitype/StillImage" /><dc:title></dc:title></cc:Work></rdf:RDF></metadata><defs
   id="defs53" />
<g
   id="layer2"
   style="display:inline"><path
     style="display:inline;opacity:1;fill:none;stroke:#000000;stroke-width:20;stroke-linecap:round;stroke-linejoin:miter;stroke-miterlimit:4;stroke-dasharray:none;stroke-opacity:1"
     d="M 218.28778,319.45638 V 445.28074"
     id="path4655-4" /><path
     style="display:inline;opacity:1;fill:none;stroke:#000000;stroke-width:20;stroke-linecap:round;stroke-linejoin:miter;stroke-miterlimit:4;stroke-dasharray:none;stroke-opacity:1"
     d="m 178.71116,319.45638 v 92.81917"
     id="path4655-4-9" /><path
     style="display:inline;opacity:1;vector-effect:none;fill:none;fill-opacity:1;stroke:#686868;stroke-width:20;stroke-linecap:round;stroke-linejoin:miter;stroke-miterlimit:4;stroke-dasharray:none;stroke-dashoffset:0;stroke-opacity:1"
     d="M 198.50769,319.72756 V 429.82881"
     id="path4655-7" /><path
     style="enable-background:new 0 0 511.99799999999999045 511.99799999999999045;display:inline;opacity:1;vector-effect:none;fill:none;fill-opacity:1;stroke:#686868;stroke-width:20;stroke-linecap:round;stroke-linejoin:miter;stroke-miterlimit:4;stroke-dasharray:none;stroke-dashoffset:0;stroke-opacity:1"
     d="M 316.46511,315.6626 V 425.76385"
     id="path4655-7-6" /></g><g
   id="g6">
	<g
   id="g4">
		<path
   d="M281.348,200.103h-50.683c-5.521,0-9.997,4.476-9.997,9.997s4.476,9.997,9.997,9.997h50.683    c5.521,0,9.997-4.476,9.997-9.997S286.868,200.103,281.348,200.103z"
   id="path2" />
	</g>
</g>
<g
   id="g12">
	
</g>
<g
   id="g18">
	<g
   id="g16">
		<path
   d="M295.992,160.116h-79.974c-5.521,0-9.997,4.476-9.997,9.997s4.476,9.997,9.997,9.997h79.974    c5.521,0,9.997-4.476,9.997-9.997S301.513,160.116,295.992,160.116z"
   id="path14" />
	</g>
</g>
<g
   id="g20">
</g>
<g
   id="g22">
</g>
<g
   id="g24">
</g>
<g
   id="g26">
</g>
<g
   id="g28">
</g>
<g
   id="g30">
</g>
<g
   id="g32">
</g>
<g
   id="g34">
</g>
<g
   id="g36">
</g>
<g
   id="g38">
</g>
<g
   id="g40">
</g>
<g
   id="g42">
</g>
<g
   id="g44">
</g>
<g
   id="g46">
</g>
<g
   id="g48">
</g>
<g
   id="layer1"
   style="display:inline;opacity:1"><g
     id="g10">
		<path
   d="m 485.99,220.094 h 15.935 v 0.002 c 2.898,0 5.653,-1.258 7.552,-3.447 1.898,-2.189 2.754,-5.094 2.344,-7.963 -3.27,-22.881 -12.826,-44.356 -27.636,-62.102 -12.753,-15.282 -28.921,-27.224 -47.166,-34.912 14.085,-3.654 2.217,0.473 29.389,-12.591 3.049,-1.524 5.111,-4.497 5.47,-7.887 0.359,-3.39 -1.034,-6.729 -3.695,-8.859 L 455.066,71.838 C 437.084,57.449 415.852,47.613 393.44,43.055 c 4.204,-2.596 8.416,-5.065 12.989,-7.353 3.048,-1.526 5.109,-4.499 5.468,-7.888 0.359,-3.39 -1.035,-6.729 -3.697,-8.858 C 391.027,5.216 364.531,-1.696 337.323,0.469 316.304,2.14 285.783,9.87 255.996,36.414 201.756,-11.697 133.754,-5.903 103.807,18.055 c -2.662,2.129 -4.055,5.468 -3.696,8.858 0.358,3.39 2.419,6.363 5.468,7.888 4.831,2.417 9.283,5.167 13.76,8.097 C 96.641,47.386 75.131,57.282 56.942,71.837 L 43.828,82.335 c -2.967,2.374 -4.331,6.225 -3.52,9.938 0.811,3.712 3.656,6.644 7.343,7.566 l 35.254,8.813 C 38.77,123.807 6.803,162.43 0.193,208.685 c -0.41,2.869 0.445,5.774 2.344,7.963 1.898,2.189 4.654,3.347 7.553,3.347 H 26.029 C -3.36,251.578 0.381,288.473 0.094,290.072 c 0,5.521 4.476,9.897 9.997,9.897 h 20.74 c -12.829,21.737 -16.654,47.673 -10.445,72.502 0.736,2.941 2.767,5.39 5.521,6.657 2.754,1.267 5.935,1.215 8.647,-0.141 l 22.975,-11.488 c -1.579,41.164 22.408,64.617 24.534,68.52 3.488,4.654 10.169,5.341 14.534,1.573 l 42.133,-36.384 c 6.245,3.901 14.013,5.229 21.544,3.102 6.742,12.217 15.498,23.343 25.759,32.729 v 64.963 c 0,5.521 4.476,9.997 9.997,9.997 h 119.96 c 5.521,0 9.997,-4.476 9.997,-9.997 v -64.963 c 10.268,-9.395 19.026,-20.526 25.768,-32.749 7.291,2.017 15.132,0.854 21.517,-3.097 l 42.149,36.398 c 4.406,3.805 11.078,3.039 14.534,-1.572 2.001,-3.676 26.109,-27.418 24.534,-68.52 l 22.975,11.488 c 2.711,1.356 5.893,1.408 8.647,0.141 2.754,-1.268 4.785,-3.716 5.521,-6.657 6.21,-24.829 2.383,-50.669 -10.444,-72.402 h 20.739 c 5.521,0 9.997,-4.476 9.997,-9.997 v -4.119 c 0.001,-24.296 -9.413,-48.105 -25.934,-65.859 z m -350.39,73.23 c 2.114,-4.228 3.811,-8.661 5.092,-13.248 h 6.356 c 2.483,12.186 9.415,22.772 19.018,29.986 -6.217,3.483 -11.982,7.814 -17.095,12.929 -0.977,0.977 -1.925,1.979 -2.849,3.006 l -6.226,-6.226 c -6.989,-6.987 -8.715,-17.615 -4.296,-26.447 z m 180.387,-73.228 c -15.772,0 -30.588,7.538 -39.966,19.993 h -40.028 c -9.374,-12.453 -24.193,-19.993 -39.967,-19.993 -24.138,0 -44.333,17.199 -48.978,39.987 h -3.466 c 0.083,-4.336 -0.156,-8.735 -0.746,-13.169 -7.478,-56.428 36.476,-106.792 93.606,-106.792 h 39.127 c 57.151,0 101.081,50.381 93.606,106.791 -0.318,2.394 -0.532,4.788 -0.653,7.172 h -5.188 c -6.762,-19.873 -25.775,-33.989 -47.347,-33.989 z m 29.989,49.984 c 0,17.573 -15.147,31.368 -32.389,29.89 -15.239,-1.192 -27.591,-13.95 -27.591,-29.89 0,-16.806 13.706,-29.99 29.99,-29.99 16.141,0 29.99,13.173 29.99,29.99 z M 244.992,259.983 h 22.027 c -0.669,3.279 -1.017,6.728 -1.017,10.097 0,8.916 2.333,17.511 6.772,25.121 l -2.659,13.296 c -0.265,1.325 -0.718,2.608 -1.348,3.819 -2.483,4.779 -7.374,7.748 -12.763,7.748 -5.387,0 -10.278,-2.969 -12.763,-7.751 -0.628,-1.208 -1.081,-2.491 -1.346,-3.816 l -2.659,-13.295 c 4.439,-7.607 6.772,-16.204 6.772,-25.122 10e-4,-3.369 -0.347,-6.818 -1.016,-10.097 z m -18.977,10.097 c 0,16.617 -13.46,29.99 -29.99,29.99 -16.537,0 -29.99,-13.454 -29.99,-29.99 0,-16.536 13.454,-29.99 29.99,-29.99 16.25,0 29.99,13.149 29.99,29.99 z m 79.974,221.926 h -99.967 v -40.089 c 15.688,9.26 32.677,14.097 49.983,14.097 17.307,0 34.298,-4.838 49.984,-14.096 z m -49.984,-45.984 c -33.008,0 -62.52,-22.864 -78.386,-51.688 l 12.683,-8.456 c 2.873,4.921 7.085,9.053 12.307,11.844 10.225,5.479 22.574,4.884 32.226,-1.551 l 15.635,-10.414 c 3.363,-2.246 7.708,-2.245 11.08,0.006 l 15.622,10.404 c 9.656,6.437 22.005,7.033 32.219,1.558 5.227,-2.794 9.442,-6.928 12.316,-11.85 l 12.684,8.457 c -15.848,28.795 -45.348,51.69 -78.386,51.69 z m 99.125,-61.89 c -0.972,-0.649 4.773,3.183 -33.598,-22.403 -3.068,-2.045 -7.013,-2.236 -10.263,-0.497 -3.251,1.739 -5.28,5.127 -5.28,8.814 0,4.212 -2.307,8.062 -6.032,10.053 -3.708,1.988 -8.189,1.77 -11.699,-0.569 l -15.616,-10.401 c -10.106,-6.747 -23.166,-6.747 -33.265,-0.006 l -15.629,10.41 c -3.505,2.336 -7.986,2.554 -11.705,0.561 -3.715,-1.985 -6.022,-5.835 -6.022,-10.048 0,-3.687 -2.029,-7.075 -5.28,-8.814 -3.25,-1.739 -7.194,-1.548 -10.263,0.497 -36.548,24.368 -34.729,23.602 -37.41,23.602 -3.611,0 -7.028,-2.821 -7.028,-7.008 0,-30.433 23.486,-55.804 53.855,-58.09 9.286,-0.712 18.75,0.866 27.552,4.557 6.336,9.494 16.955,15.266 28.557,15.266 11.602,0 22.223,-5.773 28.557,-15.266 8.779,-3.679 18.218,-5.258 27.472,-4.565 30.53,2.274 53.935,27.744 53.935,58.099 10e-4,5.618 -6.182,8.912 -10.838,5.808 z m 16.986,-64.36 -6.226,6.226 c -0.923,-1.027 -1.872,-2.03 -2.849,-3.006 -5.113,-5.113 -10.877,-9.445 -17.096,-12.928 11.147,-8.374 18.681,-21.297 19.85,-35.985 h 4.124 c 1.313,6.744 3.471,13.194 6.495,19.248 4.417,8.829 2.691,19.457 -4.298,26.445 z m 89.821,-39.696 c -3.786,0 -7.247,2.138 -8.94,5.524 -1.693,3.386 -1.33,7.438 0.94,10.467 l 5.262,7.023 c 11.327,15.098 16.58,33.506 15.099,51.963 l -27.883,-13.941 c -3.493,-1.746 -7.681,-1.3 -10.727,1.144 -3.045,2.443 -4.39,6.436 -3.442,10.224 5.463,21.847 1.129,44.679 -11.889,62.964 l -35.236,-30.428 c 0.546,-2.164 0.842,-4.405 0.842,-6.691 0,-10.324 -2.005,-20.399 -5.96,-29.948 -0.788,-1.9 -1.668,-3.768 -2.608,-5.607 l 8.859,-8.859 c 13.085,-13.085 16.315,-32.989 8.042,-49.523 -3.041,-6.09 -4.907,-12.771 -5.586,-19.881 0.006,-0.142 0.021,-0.281 0.021,-0.424 0,-0.689 -0.07,-1.361 -0.203,-2.01 -0.237,-4.097 -0.095,-8.301 0.466,-12.532 9.061,-68.386 -44.2,-129.411 -113.427,-129.411 H 236.44 c -69.005,0 -122.519,60.79 -113.426,129.415 1.666,12.526 -0.167,24.572 -5.298,34.836 -8.276,16.541 -5.045,36.445 8.039,49.53 l 8.848,8.847 c -5.615,10.983 -8.556,23.129 -8.556,35.566 0,2.285 0.296,4.527 0.842,6.691 l -35.236,30.43 C 78.635,397.164 74.3,374.33 79.764,352.481 c 0.948,-3.788 -0.397,-7.78 -3.442,-10.224 -3.046,-2.443 -7.235,-2.889 -10.726,-1.144 l -27.883,13.942 c -2.801,-34.908 18.465,-55.469 20.36,-58.987 2.27,-3.029 2.634,-7.081 0.94,-10.467 -1.694,-3.386 -5.155,-5.524 -8.94,-5.524 H 20.314 c 2.953,-37.57 29.754,-53.952 36.828,-62.908 2.859,-2.859 3.714,-7.16 2.166,-10.894 -1.547,-3.736 -5.192,-6.171 -9.236,-6.171 H 22.254 c 8.765,-34.148 34.017,-61.508 68.05,-72.849 l 22.912,-7.637 c 3.836,-1.279 6.523,-4.742 6.81,-8.775 0.287,-4.034 -1.884,-7.841 -5.5,-9.65 C 87.084,87.586 100.182,92.475 72.135,85.351 93.675,69.076 120.221,60.15 147.273,60.15 h 2.769 c 4.635,0 8.663,-3.187 9.729,-7.698 1.066,-4.512 -1.111,-9.164 -5.256,-11.238 -6.672,-3.339 -12.618,-7.311 -18.911,-11.517 -1.796,-1.201 -3.61,-2.412 -5.457,-3.62 27.423,-10.553 77.097,-10.551 118.792,31.146 3.904,3.904 10.234,3.904 14.138,0 27.648,-27.648 56.499,-35.284 75.835,-36.822 15.431,-1.228 30.774,1.097 43.081,6.23 -1.817,1.13 -3.604,2.26 -5.373,3.381 -6.344,4.016 -12.336,7.808 -19.119,11.202 -4.146,2.074 -6.322,6.727 -5.256,11.238 1.066,4.511 5.093,7.698 9.729,7.698 h 2.769 c 46.884,0 78.195,27.724 78.756,28.035 l -5.04,2.52 -38.922,9.731 c -4.312,1.078 -7.394,4.873 -7.564,9.314 -0.17,4.442 2.611,8.461 6.828,9.868 l 22.913,7.638 c 34.032,11.34 59.283,38.701 68.049,72.849 h -27.82 c -4.043,0 -7.688,2.436 -9.236,6.171 -1.547,3.735 -0.692,8.035 2.166,10.894 l 14.625,14.625 c 12.866,12.866 20.78,30.202 22.201,48.282 h -29.762 z"
   id="path8" />
	</g><path
     style="display:inline;opacity:1;vector-effect:none;fill:none;fill-opacity:1;stroke:#686868;stroke-width:20;stroke-linecap:round;stroke-linejoin:miter;stroke-miterlimit:4;stroke-dasharray:none;stroke-dashoffset:0;stroke-opacity:1"
     d="m 198.50769,355.25284 0,45.28795"
     id="path4655" /><path
     style="display:inline;opacity:1;fill:none;stroke:#000000;stroke-width:20;stroke-linecap:round;stroke-linejoin:miter;stroke-miterlimit:4;stroke-dasharray:none;stroke-opacity:1"
     d="M 296.68502,315.39142 V 441.21578"
     id="path4655-4-4" /><path
     style="display:inline;opacity:1;fill:none;stroke:#000000;stroke-width:20;stroke-linecap:round;stroke-linejoin:miter;stroke-miterlimit:4;stroke-dasharray:none;stroke-opacity:1"
     d="m 336.26164,315.39142 v 92.81917"
     id="path4655-4-9-3" /><path
     style="display:inline;opacity:1;vector-effect:none;fill:none;fill-opacity:1;stroke:#686868;stroke-width:20.1351223;stroke-linecap:round;stroke-linejoin:miter;stroke-miterlimit:4;stroke-dasharray:none;stroke-dashoffset:0;stroke-opacity:1"
     d="m 316.46511,355.69441 v 45.90197"
     id="path4655-3" /></g></svg>