<?xml version="1.0" encoding="UTF-8" standalone="no"?>
<svg
   xmlns:dc="http://purl.org/dc/elements/1.1/"
   xmlns:cc="http://creativecommons.org/ns#"
   xmlns:rdf="http://www.w3.org/1999/02/22-rdf-syntax-ns#"
   xmlns:svg="http://www.w3.org/2000/svg"
   xmlns="http://www.w3.org/2000/svg"
   version="1.1"
   id="Capa_1"
   x="0px"
   y="0px"
   viewBox="0 0 511.998 511.998"
   style="enable-background:new 0 0 511.998 511.998;"
   xml:space="preserve"><metadata
   id="metadata55"><rdf:RDF><cc:Work
       rdf:about=""><dc:format>image/svg+xml</dc:format><dc:type
         rdf:resource="http://purl.org/dc/dcmitype/StillImage" /><dc:title></dc:title></cc:Work></rdf:RDF></metadata><defs
   id="defs53" />

<g
   style="display:inline"
   id="layer3" /><g
   id="g12">
	
</g>

<g
   id="g20">
</g>
<g
   id="g22">
</g>
<g
   id="g24">
</g>
<g
   id="g26">
</g>
<g
   id="g28">
</g>
<g
   id="g30">
</g>
<g
   id="g32">
</g>
<g
   id="g34">
</g>
<g
   id="g36">
</g>
<g
   id="g38">
</g>
<g
   id="g40">
</g>
<g
   id="g42">
</g>
<g
   id="g44">
</g>
<g
   id="g46">
</g>
<g
   id="g48">
</g>
<g
   transform="translate(372.51785,26.250244)"
   id="layer5"
   style="display:inline;fill:#ffffff;fill-opacity:1"><path
     id="path938"
     d="m -115.56124,24.081692 c 0,0 39.118428,-32.2151789 75.168748,-35.283291 36.0503202,-3.068113 65.96441,9.9713651 65.96441,9.9713651 L -1.2740618,23.314664 c 0,0 72.1006398,17.641645 89.7422798,36.817347 17.641652,19.175706 -50.62385,23.010846 -50.62385,23.010846 0,0 62.896302,17.641643 80.537952,62.129273 17.64164,44.48763 9.20433,42.95357 9.20433,42.95357 l -32.982202,-2.30108 c 0,0 36.050322,33.74923 37.584372,66.73144 1.53406,32.98221 -36.817342,10.73839 -36.817342,10.73839 0,0 23.010842,46.02169 19.942732,75.16875 -3.06812,29.14707 -41.419522,-12.27245 -41.419522,-12.27245 l -14.57353,72.10064 c 0,0 -27.61301,-4.60217 -50.6238598,-26.84598 -23.0108402,-22.24381 -63.2137802,30.35413 -63.2137802,30.35413 l -1.21657,73.96169 -118.122328,3.06811 1.38148,-72.96484 -50.47127,-42.08937 -54.459,41.41951 c 0,0 -33.66815,-70.63342 -24.5449,-74.40172 l -35.28329,14.57354 c 0,0 -19.1757,-23.01085 -3.06811,-52.15791 16.10759,-29.14707 16.10759,-26.84599 16.10759,-26.84599 l -37.58438,-3.06811 c 0,0 14.57354,-46.02168 33.74924,-73.63469 19.1757,-27.61301 -35.28329,-0.76703 -35.28329,-0.76703 0,0 8.43731,-53.69197 54.45899,-80.53795 46.02169,-26.845983 43.7206,-19.175703 43.7206,-19.175703 l -53.69196,-23.77787 c 0,0 17.64164,-25.311926 55.22602,-30.681122 37.58437,-5.369197 35.28329,-9.204337 35.28329,-9.204337 L -258.99549,1.0708501 c 0,0 23.77787,-31.4481511 77.46983,-11.5054211 53.69197,19.9427291 65.96442,34.516263 65.96442,34.516263 z"
     style="display:inline;opacity:1;fill:#ffffff;fill-opacity:1;stroke:none;stroke-width:1px;stroke-linecap:butt;stroke-linejoin:miter;stroke-opacity:1" /></g><g
   id="layer6"><path
     style="color:#000000;font-style:normal;font-variant:normal;font-weight:normal;font-stretch:normal;font-size:medium;line-height:normal;font-family:sans-serif;font-variant-ligatures:normal;font-variant-position:normal;font-variant-caps:normal;font-variant-numeric:normal;font-variant-alternates:normal;font-feature-settings:normal;text-indent:0;text-align:start;text-decoration:none;text-decoration-line:none;text-decoration-style:solid;text-decoration-color:#000000;letter-spacing:normal;word-spacing:normal;text-transform:none;writing-mode:lr-tb;direction:ltr;text-orientation:mixed;dominant-baseline:auto;baseline-shift:baseline;text-anchor:start;white-space:normal;shape-padding:0;clip-rule:nonzero;display:inline;overflow:visible;visibility:visible;opacity:1;isolation:auto;mix-blend-mode:normal;color-interpolation:sRGB;color-interpolation-filters:linearRGB;solid-color:#000000;solid-opacity:1;vector-effect:none;fill:#006de0;fill-opacity:1;fill-rule:nonzero;stroke:none;stroke-width:20;stroke-linecap:round;stroke-linejoin:miter;stroke-miterlimit:4;stroke-dasharray:none;stroke-dashoffset:0;stroke-opacity:1;color-rendering:auto;image-rendering:auto;shape-rendering:auto;text-rendering:auto;enable-background:accumulate"
     d="m 198.35742,309.58594 c -5.51978,0.083 -9.92838,4.62273 -9.84961,10.14258 v 110.0996 c 19.53368,11.16296 19.82037,10.87428 20,0 v -110.0996 c 0.0805,-5.63765 -4.5128,-10.22738 -10.15039,-10.14258 z"
     id="path4655-7" /><path
     style="color:#000000;font-style:normal;font-variant:normal;font-weight:normal;font-stretch:normal;font-size:medium;line-height:normal;font-family:sans-serif;font-variant-ligatures:normal;font-variant-position:normal;font-variant-caps:normal;font-variant-numeric:normal;font-variant-alternates:normal;font-feature-settings:normal;text-indent:0;text-align:start;text-decoration:none;text-decoration-line:none;text-decoration-style:solid;text-decoration-color:#000000;letter-spacing:normal;word-spacing:normal;text-transform:none;writing-mode:lr-tb;direction:ltr;text-orientation:mixed;dominant-baseline:auto;baseline-shift:baseline;text-anchor:start;white-space:normal;shape-padding:0;clip-rule:nonzero;display:inline;overflow:visible;visibility:visible;opacity:1;isolation:auto;mix-blend-mode:normal;color-interpolation:sRGB;color-interpolation-filters:linearRGB;solid-color:#000000;solid-opacity:1;vector-effect:none;fill:#006de0;fill-opacity:1;fill-rule:nonzero;stroke:none;stroke-width:20;stroke-linecap:round;stroke-linejoin:miter;stroke-miterlimit:4;stroke-dasharray:none;stroke-dashoffset:0;stroke-opacity:1;color-rendering:auto;image-rendering:auto;shape-rendering:auto;text-rendering:auto;enable-background:accumulate"
     d="m 316.31445,305.52148 c -5.51901,0.083 -9.9273,4.62154 -9.84961,10.14063 v 110.10156 c 2.17782,14.95955 2.46451,14.94206 20,0 V 315.66211 c 0.0794,-5.63689 -4.51358,-10.2254 -10.15039,-10.14063 z"
     id="path4655-7-6" /></g><g
   id="layer7"><path
     style="enable-background:accumulate;display:inline;color:#000000;font-style:normal;font-variant:normal;font-weight:normal;font-stretch:normal;font-size:medium;line-height:normal;font-family:sans-serif;font-variant-ligatures:normal;font-variant-position:normal;font-variant-caps:normal;font-variant-numeric:normal;font-variant-alternates:normal;font-feature-settings:normal;text-indent:0;text-align:start;text-decoration:none;text-decoration-line:none;text-decoration-style:solid;text-decoration-color:#000000;letter-spacing:normal;word-spacing:normal;text-transform:none;writing-mode:lr-tb;direction:ltr;text-orientation:mixed;dominant-baseline:auto;baseline-shift:baseline;text-anchor:start;white-space:normal;shape-padding:0;clip-rule:nonzero;overflow:visible;visibility:visible;opacity:1;isolation:auto;mix-blend-mode:normal;color-interpolation:sRGB;color-interpolation-filters:linearRGB;solid-color:#000000;solid-opacity:1;vector-effect:none;fill:#000000;fill-opacity:1;fill-rule:nonzero;stroke:none;stroke-width:20;stroke-linecap:round;stroke-linejoin:miter;stroke-miterlimit:4;stroke-dasharray:none;stroke-dashoffset:0;stroke-opacity:1;color-rendering:auto;image-rendering:auto;shape-rendering:auto;text-rendering:auto"
     d="M 163.13672 0 C 138.76079 0.071798519 117.37638 7.1987178 103.80664 18.054688 C 101.14464 20.183688 99.752324 23.522109 100.11133 26.912109 C 100.46933 30.302109 102.52913 33.275781 105.57812 34.800781 C 110.40914 37.217781 114.86284 39.968437 119.33984 42.898438 C 96.641852 47.386437 75.130406 57.282891 56.941406 71.837891 L 43.828125 82.335938 C 40.861125 84.709936 39.497594 88.560436 40.308594 92.273438 C 41.119594 95.985438 43.963391 98.917844 47.650391 99.839844 L 82.904297 108.65234 C 38.769297 123.80734 6.8033594 162.43055 0.19335938 208.68555 C -0.21664062 211.55455 0.63810933 214.45944 2.5371094 216.64844 C 4.4351094 218.83744 7.1908433 219.99414 10.089844 219.99414 L 26.029297 219.99414 C -3.3597033 251.57714 0.38075 288.47327 0.09375 290.07227 C 0.09375 295.59327 4.5707967 299.96875 10.091797 299.96875 L 30.830078 299.96875 C 18.001078 321.70575 14.177719 347.6417 20.386719 372.4707 C 21.122719 375.4117 23.15225 377.86191 25.90625 379.12891 C 28.66025 380.39591 31.842686 380.34233 34.554688 378.98633 L 57.529297 367.49805 C 55.950297 408.66205 79.9365 432.11653 82.0625 436.01953 C 85.5505 440.67353 92.232656 441.3598 96.597656 437.5918 L 138.73047 401.20703 C 144.97547 405.10803 152.74244 406.43755 160.27344 404.31055 C 167.01544 416.52755 175.7722 427.65306 186.0332 437.03906 L 186.0332 502.00195 C 186.0332 507.52295 190.5083 511.99805 196.0293 511.99805 L 315.99023 511.99805 C 321.51123 511.99805 325.98633 507.52295 325.98633 502.00195 L 325.98633 437.03906 C 336.25433 427.64406 345.01386 416.51206 351.75586 404.28906 C 359.04686 406.30606 366.88648 405.14436 373.27148 401.19336 L 415.42188 437.5918 C 419.82788 441.3968 426.49908 440.63053 429.95508 436.01953 C 431.95608 432.34353 456.06328 408.60005 454.48828 367.49805 L 477.46484 378.98633 C 480.17584 380.34233 483.35733 380.39591 486.11133 379.12891 C 488.86533 377.86091 490.89681 375.4117 491.63281 372.4707 C 497.84281 347.6417 494.0145 321.80136 481.1875 300.06836 L 501.92773 300.06836 C 507.44873 300.06836 511.92383 295.59327 511.92383 290.07227 L 511.92383 285.95312 C 511.92483 261.65713 502.51123 237.84775 485.99023 220.09375 L 501.92578 220.09375 L 501.92578 220.0957 C 504.82378 220.0957 507.57756 218.83744 509.47656 216.64844 C 511.37456 214.45944 512.23031 211.55455 511.82031 208.68555 C 508.55031 185.80455 498.99555 164.32998 484.18555 146.58398 C 471.43255 131.30198 455.26453 119.35987 437.01953 111.67188 C 451.10453 108.01788 439.2362 112.14408 466.4082 99.080078 C 469.4572 97.556078 471.51991 94.583359 471.87891 91.193359 C 472.23791 87.803359 470.84459 84.465937 468.18359 82.335938 L 455.06641 71.837891 C 437.08441 57.448891 415.85145 47.612685 393.43945 43.054688 C 397.64345 40.458688 401.85669 37.989172 406.42969 35.701172 C 409.47769 34.175172 411.53748 31.203453 411.89648 27.814453 C 412.25548 24.424453 410.86122 21.084078 408.19922 18.955078 C 391.02622 5.2150783 364.53027 -1.69625 337.32227 0.46875 C 316.30327 2.13975 285.78309 9.8700635 255.99609 36.414062 C 226.33359 10.103359 192.55595 -0.086653385 163.13672 0 z M 347.5625 20.080078 C 359.98917 20.143602 371.99275 22.460297 381.99219 26.630859 C 380.17519 27.760859 378.38814 28.890719 376.61914 30.011719 C 370.27514 34.027719 364.28495 37.820844 357.50195 41.214844 C 353.35595 43.288844 351.17814 47.940172 352.24414 52.451172 C 353.31014 56.962172 357.33861 60.150391 361.97461 60.150391 L 364.74219 60.150391 C 411.62619 60.150391 442.93705 87.874547 443.49805 88.185547 L 438.45898 90.705078 L 399.53711 100.43555 C 395.22511 101.51355 392.14266 105.309 391.97266 109.75 C 391.80266 114.192 394.58378 118.21019 398.80078 119.61719 L 421.71484 127.25586 C 455.74684 138.59586 480.99767 165.95747 489.76367 200.10547 L 461.94336 200.10547 C 457.90036 200.10547 454.25503 202.54039 452.70703 206.27539 C 451.16003 210.01039 452.01505 214.31092 454.87305 217.16992 L 469.49805 231.79492 C 482.36405 244.66092 490.27822 261.99617 491.69922 280.07617 L 461.9375 280.07617 C 458.1515 280.07617 454.68909 282.21361 452.99609 285.59961 C 451.30309 288.98561 451.6675 293.03741 453.9375 296.06641 L 459.19922 303.08984 C 470.52622 318.18784 475.77983 336.59573 474.29883 355.05273 L 446.41406 341.11133 C 442.92106 339.36533 438.7335 339.81186 435.6875 342.25586 C 432.6425 344.69886 431.29809 348.69247 432.24609 352.48047 C 437.70909 374.32747 433.37542 397.15836 420.35742 415.44336 L 385.12109 385.01562 C 385.66709 382.85163 385.96289 380.61022 385.96289 378.32422 C 385.96289 368.00022 383.95891 357.92595 380.00391 348.37695 C 379.21591 346.47695 378.33453 344.60853 377.39453 342.76953 L 386.25391 333.91016 C 399.33891 320.82516 402.56988 300.92267 394.29688 284.38867 C 391.25588 278.29867 389.38994 271.61781 388.71094 264.50781 C 388.71694 264.36581 388.73047 264.22503 388.73047 264.08203 C 388.73047 263.39303 388.66034 262.72127 388.52734 262.07227 C 388.29034 257.97527 388.43314 253.77202 388.99414 249.54102 C 398.05514 181.15502 344.79341 120.13086 275.56641 120.13086 L 236.43945 120.13086 C 167.43445 120.13086 113.92067 180.91992 123.01367 249.54492 C 124.67967 262.07092 122.8478 274.11686 117.7168 284.38086 C 109.4408 300.92186 112.67186 320.82516 125.75586 333.91016 L 134.60352 342.75781 C 128.98852 353.74081 126.04686 365.88722 126.04688 378.32422 C 126.04688 380.60922 126.34267 382.85165 126.88867 385.01562 L 91.652344 415.44531 C 78.634344 397.16431 74.299672 374.32947 79.763672 352.48047 C 80.711672 348.69247 79.367266 344.70181 76.322266 342.25781 C 73.276266 339.81481 69.086703 339.36828 65.595703 341.11328 L 37.712891 355.05469 C 34.911891 320.14669 56.177266 299.58636 58.072266 296.06836 C 60.342266 293.03936 60.707672 288.98756 59.013672 285.60156 C 57.319672 282.21556 53.857266 280.07617 50.072266 280.07617 L 20.314453 280.07617 C 23.267453 242.50617 50.068578 226.12592 57.142578 217.16992 C 60.001578 214.31092 60.856594 210.00939 59.308594 206.27539 C 57.761594 202.53939 54.116266 200.10352 50.072266 200.10352 L 22.253906 200.10352 C 31.018906 165.95552 56.271685 138.59686 90.304688 127.25586 L 113.2168 119.61719 C 117.0528 118.33819 119.73839 114.87675 120.02539 110.84375 C 120.31239 106.80975 118.14139 103.00236 114.52539 101.19336 C 87.083393 87.586357 100.18177 92.475563 72.134766 85.351562 C 93.674766 69.076562 120.22144 60.150391 147.27344 60.150391 L 150.04297 60.150391 C 154.67797 60.150391 158.70548 56.962172 159.77148 52.451172 C 160.83748 47.939172 158.66062 43.288844 154.51562 41.214844 C 147.84363 37.875844 141.89652 33.903266 135.60352 29.697266 C 133.80752 28.496266 131.99348 27.284172 130.14648 26.076172 C 157.56948 15.523172 207.24445 15.525656 248.93945 57.222656 C 252.84345 61.126656 259.17217 61.126656 263.07617 57.222656 C 290.72417 29.574656 319.57611 21.938391 338.91211 20.400391 C 341.80542 20.170141 344.69481 20.065419 347.5625 20.080078 z M 236.44141 140.12109 L 275.56836 140.12109 C 332.71936 140.12109 376.65078 190.50211 369.17578 246.91211 C 368.85778 249.30611 368.64248 251.70194 368.52148 254.08594 L 363.33398 254.08594 C 356.57198 234.21294 337.55833 220.0957 315.98633 220.0957 C 300.21433 220.0957 285.39948 227.63484 276.02148 240.08984 L 235.99219 240.08984 C 226.61819 227.63684 211.79939 220.0957 196.02539 220.0957 C 171.88739 220.0957 151.69383 237.29403 147.04883 260.08203 L 143.58203 260.08203 C 143.66503 255.74603 143.42594 251.34806 142.83594 246.91406 C 135.35794 190.48606 179.31141 140.12109 236.44141 140.12109 z M 196.02539 240.08984 C 212.27539 240.08984 226.01562 253.23908 226.01562 270.08008 C 226.01562 286.69708 212.55539 300.07031 196.02539 300.07031 C 179.48839 300.07031 166.03516 286.61608 166.03516 270.08008 C 166.03516 253.54408 179.48939 240.08984 196.02539 240.08984 z M 315.98633 240.08984 C 332.12733 240.08984 345.97656 253.26308 345.97656 270.08008 C 345.97656 287.65308 330.82989 301.4487 313.58789 299.9707 C 298.34889 298.7787 285.99609 286.02008 285.99609 270.08008 C 285.99609 253.27408 299.70233 240.08984 315.98633 240.08984 z M 244.99219 259.98242 L 267.01953 259.98242 C 266.35053 263.26142 266.00195 266.71108 266.00195 270.08008 C 266.00195 278.99608 268.33444 287.59117 272.77344 295.20117 L 270.11523 308.49609 C 269.85023 309.82109 269.39758 311.10541 268.76758 312.31641 C 266.28458 317.09541 261.39291 320.06445 256.00391 320.06445 C 250.61691 320.06445 245.72523 317.0945 243.24023 312.3125 C 242.61223 311.1045 242.15953 309.82109 241.89453 308.49609 L 239.23633 295.20117 C 243.67533 287.59417 246.00781 278.99808 246.00781 270.08008 C 246.00881 266.71108 245.66119 263.26142 244.99219 259.98242 z M 365.79492 274.07812 L 369.91992 274.07812 C 371.23292 280.82212 373.39006 287.27217 376.41406 293.32617 C 380.83106 302.15517 379.10423 312.78348 372.11523 319.77148 L 365.89062 325.99805 C 364.96762 324.97105 364.01802 323.96819 363.04102 322.99219 C 357.92802 317.87919 352.16431 313.54745 345.94531 310.06445 C 357.09231 301.69045 364.62592 288.76612 365.79492 274.07812 z M 140.69141 280.07617 L 147.04883 280.07617 C 149.53183 292.26217 156.46341 302.8485 166.06641 310.0625 C 159.84941 313.5455 154.0837 317.87523 148.9707 322.99023 C 147.9937 323.96723 147.04509 324.96909 146.12109 325.99609 L 139.89648 319.77148 C 132.90748 312.78448 131.18061 302.15622 135.59961 293.32422 C 137.71361 289.09622 139.41041 284.66317 140.69141 280.07617 z M 308.55664 320.07031 C 309.71752 320.08627 310.87645 320.13798 312.0332 320.22461 C 316.98848 320.5937 321.75143 321.58273 326.26172 323.0957 L 326.26172 406.97266 C 320.63893 414.54577 314.03765 421.4341 306.68555 427.24219 L 306.68555 320.09375 C 307.30941 320.08209 307.93325 320.06174 308.55664 320.07031 z M 203.38281 320.07227 C 205.01665 320.04731 206.65328 320.0974 208.28711 320.21094 L 208.28711 429.48828 C 201.02852 424.18359 194.43731 417.83051 188.71094 410.7793 L 188.71094 322.18164 C 192.30612 321.18641 196.04425 320.52225 199.89453 320.23242 C 201.05528 320.14342 202.21812 320.09006 203.38281 320.07227 z M 286.68555 323.96094 L 286.68555 378.48242 L 272.64258 369.12891 C 267.58958 365.75541 261.7986 364.06907 256.00781 364.06836 C 250.21703 364.06764 244.42645 365.75255 239.37695 369.12305 L 228.28711 376.50977 L 228.28711 325.9668 C 234.69654 334.75273 244.89374 340.05664 256.00391 340.05664 C 267.60591 340.05664 278.22655 334.28206 284.56055 324.78906 C 285.26359 324.49444 285.97445 324.22854 286.68555 323.96094 z M 168.71094 332.21484 L 168.71094 376.28906 C 154.94908 385.49505 155.01472 385.33008 153.06836 385.33008 C 149.45736 385.33008 146.03906 382.50927 146.03906 378.32227 C 146.03906 359.6614 154.87767 342.914 168.71094 332.21484 z M 346.26172 334.66211 C 358.39896 345.39713 365.96875 361.06768 365.96875 378.32422 C 365.96975 383.94222 359.78686 387.23681 355.13086 384.13281 C 354.87428 383.9615 347.76089 379.21834 346.26172 378.21875 L 346.26172 334.66211 z M 256.00781 384.07422 C 257.93596 384.07506 259.86478 384.63817 261.55078 385.76367 L 277.17188 396.16797 C 280.1355 398.14362 283.35484 399.55414 286.68555 400.41992 L 286.68555 439.36328 C 277.05949 443.60043 266.72159 446.02148 256.00586 446.02148 C 246.38407 446.02148 237.06346 444.06838 228.28711 440.60156 L 228.28711 399.5 C 230.56227 398.65928 232.76203 397.55455 234.83594 396.17188 L 250.4707 385.75781 C 252.1522 384.63481 254.07967 384.07338 256.00781 384.07422 z M 206.02148 451.91797 C 221.70948 461.17797 238.69986 466.01367 256.00586 466.01367 C 273.31286 466.01367 290.30228 461.17597 305.98828 451.91797 L 305.98828 492.00586 L 206.02148 492.00586 L 206.02148 451.91797 z "
     id="path4655-4" /></g><g
   style="display:inline"
   id="layer4"><g
     id="layer2"
     style="display:inline" /><g
     id="g6">
	<g
   id="g4">
		<path
   d="m 281.348,200.103 h -50.683 c -5.521,0 -9.997,4.476 -9.997,9.997 0,5.521 4.476,9.997 9.997,9.997 h 50.683 c 5.521,0 9.997,-4.476 9.997,-9.997 0,-5.521 -4.477,-9.997 -9.997,-9.997 z"
   id="path2" />
	</g>
</g><g
     id="g18">
	<g
   id="g16">
		<path
   d="m 295.992,160.116 h -79.974 c -5.521,0 -9.997,4.476 -9.997,9.997 0,5.521 4.476,9.997 9.997,9.997 h 79.974 c 5.521,0 9.997,-4.476 9.997,-9.997 0,-5.521 -4.476,-9.997 -9.997,-9.997 z"
   id="path14" />
	</g>
</g><g
     id="layer1"
     style="display:inline;opacity:1"><g
       id="g10">
		
	</g></g></g></svg>