<svg version="1" xmlns="http://www.w3.org/2000/svg" width="2730.667" height="2730.667" viewBox="0 0 2048.000000 2048.000000"><path d="M627.8.5c-.1.2-4.8.6-10.3.9-5.5.3-11.6.8-13.5 1.1-1.9.2-5.7.7-8.5 1.1-2.7.3-6.6.8-8.5 1-6 .8-15.8 2.4-23.8 4-4.2.8-8.8 1.7-10.2 2-1.4.3-5.2 1.2-8.5 2.1-3.3.8-6.7 1.6-7.5 1.8-.8.2-4.9 1.3-9 2.5-4.1 1.1-8.2 2.3-9 2.5-3.4.8-25.8 8.8-29.7 10.6-2.3 1-4.5 1.9-4.8 1.9-.7 0-14.2 6.2-23 10.7-18.1 9.2-41.3 24.5-49.6 32.9-11.9 11.8-14.8 29.9-7.4 44.9 5.1 10.5 9 14.1 23.5 21.7 13.2 6.9 19.6 10.6 31.5 18.1 6.1 3.9 12.5 7.9 14.4 9l3.4 2.1-2.9.8c-1.6.5-4.5 1.1-6.4 1.4-1.9.3-4.3.7-5.2 1-.9.3-2.5.6-3.5.8-11.5 2.3-48.2 13.1-64.3 19-47.5 17.1-89.3 38.2-129.5 65.4-16.8 11.4-27.7 19.5-53.5 40.1-10.7 8.6-20.1 16.1-21 16.8-24.5 19.5-29.4 26.2-30.4 41.3-.4 6.4.9 13.6 3.5 19.4 2.7 6.2 11.2 15.2 17.3 18.3 3.3 1.7 30.6 9 77.6 20.8 54.4 13.6 71.9 18.4 70 18.9-3.2 1-29.3 11.3-34 13.4-51.2 22.8-96.9 52.3-135 87.1-15.9 14.5-33 32.1-44.2 45.2-2.1 2.4-4.9 5.7-6.3 7.4-9.4 10.9-27.2 35.8-37.9 52.8C37 696.8 13.9 757.3 2.5 823-1 843.3.7 854.4 8.9 864.8c4.6 5.8 9 9.2 15.6 11.9 7.3 3.1 9.7 3.2 46.3 3.3h33.4l-7.4 8.2c-30.1 33.4-56.6 78-72.8 122.8-3.7 10.3-7.9 23-8.5 26-.2.8-1.3 4.9-2.4 9-1.1 4.1-2.2 8.6-2.5 10-.3 1.4-.8 3.6-1.1 5-.3 1.4-.8 3.6-1.1 5-.2 1.4-.9 4.9-1.5 7.8-.6 2.9-1.2 6.5-1.4 8-.2 1.5-.6 4-.9 5.7-.6 3.3-1.6 12.3-3.1 26.5-1.4 12.4-1.3 48.1.1 54.9 2.2 10.8 9.8 20.8 19.8 26.2 8.2 4.4 11.1 4.6 55.6 4.7 23.4.1 43.3.1 44.3.2 1.5 0 1.1 1.2-2.5 7.7-10.4 18.9-19.4 38.8-26.5 58.3-6.6 18.4-14.5 48.6-16.8 64.5-.3 1.6-.7 3.9-.9 5-.2 1.2-.7 4.8-1.1 8-.4 3.3-.9 6.9-1.1 8-2.6 13.7-2.6 73.2 0 88.5.3 1.4.7 4.7 1.1 7.5 1 8.7 5.5 32.7 7.6 40.5 3.8 13.9 11.1 23 23.5 28.7 5.2 2.5 7.1 2.8 16.1 2.8h10.2l49.5-24.7L230 1470l.1 16.3c.1 21.5 1 36.6 2.9 48.4.5 3 .9 5.8.8 6.2-.1.3.1 1.9.5 3.6.3 1.6.9 4.7 1.2 6.8.3 2.1 1.4 7.9 2.6 13 1.1 5.1 2.2 10.3 2.5 11.7.3 1.4 1.2 4.8 2 7.6s1.6 6 1.8 7c1.9 9.3 16.9 48 24.8 63.8 3.3 6.7 14.3 26.2 17 30.4 1 1.5 2.1 3.4 2.5 4.2.6 1.4 5.9 9.4 7.5 11.5.5.5 3.7 5.2 7.3 10.3 3.5 5 6.9 9.8 7.5 10.5 2.6 3.1 10.8 13.8 13.5 17.7 9.4 13.4 20.4 20.2 33.5 20.6 14.2.5 20.2-2.3 37.6-17.1 6.5-5.5 12.5-10.7 13.3-11.5.9-.9 4.8-4.3 8.6-7.5 3.9-3.3 7.2-6.2 7.5-6.5.3-.3 3.4-3 7-6s6.7-5.7 7-6c.3-.3 3.4-3 7-6s6.7-5.8 7-6.1c.5-.6 5.2-4.7 15.5-13.4 3.3-2.8 6.9-5.9 8.1-7.1 1.2-1.1 3.4-3 4.9-4.2 3.1-2.4 14-11.8 16.5-14.2.9-.8 4.5-4 8-7 3.6-3 6.7-5.7 7-6 .4-.4 10.5-9.1 17-14.6 1.4-1.2 7.5-6.5 13.5-11.8 10.4-9 12.9-10.6 13.7-8.9.5 1.3 5.9 4 15.3 7.8 19.6 7.9 42 9.7 62.7 5.1l5.7-1.3 4.2 7c2.3 3.9 4.7 8 5.3 9.1 10.8 19.5 40.4 59.4 60.6 81.6 4.9 5.4 25.6 26.3 29.5 29.9 3 2.7 3.5 3.8 3.6 7.9 0 2.6 0 62 .1 132 0 96.9.3 128.6 1.2 132.5 2.8 11.8 10.9 21.6 22.4 27l6.7 3.2h499.1l7.6-3.8c11.5-5.6 18.6-14.5 21.4-26.7 1.1-4.3 1.3-33.1 1.4-137.1v-131.7l6.1-5.9c35.4-33.6 66.8-73.2 90.9-114.6 5.4-9.3 6.5-10.7 8.3-10.1 9.2 2.9 35.3 4 45.2 1.9 12.5-2.6 23.9-6.7 33.3-11.8 5.3-2.9 5.4-2.9 7.5-1 1.2 1.1 12.6 10.9 25.2 21.8 12.7 10.8 24.4 20.9 26 22.4 4.8 4.2 10.7 9.2 17 14.6 3.2 2.7 8.2 7 11 9.5 2.8 2.5 8 7 11.5 10 10.4 9 14.5 12.5 15 13 .3.3 10.2 8.8 22 19 11.8 10.1 21.7 18.7 22 19 2.1 2.5 21.9 18.3 24.9 19.8 8.6 4.5 22.8 5.2 32.1 1.6 5.7-2.2 13.1-7.5 16.1-11.5 1.3-1.7 4.2-5.4 6.5-8.2 15.9-20.3 32.4-44.1 40.7-58.7 2.1-3.6 4.2-7.2 4.7-8 2.9-4.3 17.4-35 21.3-45 6.5-16.8 12.9-36.1 15.2-46 4.4-19.1 7-32.4 8.1-41.5.2-1.7.6-4.8.9-7 .5-4 1-9.1 2-21.5.3-3.6.5-14 .6-23.2l.1-16.7 47.6 23.8c26.2 13.1 49.9 24.3 52.6 25 13.7 3.4 28.2-1 38.4-11.6 5.8-6.1 9.5-14.1 11.7-25.4.3-1.3 1-4.9 1.6-7.9 3.1-16 3.8-20.6 5.4-33 2.1-16.7 2.8-61.4 1.2-79.3-2.4-27.3-9.4-60.8-18.3-87.3-3.7-11.1-12.6-33.8-14.9-38.4-.7-1.4-3.8-7.5-6.9-13.6-3-6.1-6.9-13.5-8.5-16.3-1.7-2.8-2.9-5.2-2.8-5.3.1 0 20.2-.2 44.7-.3 43.6-.2 44.6-.3 50.5-2.5 11.9-4.5 20.2-12.6 24.6-23.7 2.1-5.4 2.3-7.4 2.3-26.8 0-18.8-.7-35.3-1.9-44-.2-1.7-.6-5.3-.9-8.2-.3-2.8-.8-5.7-1-6.5-.3-.7-.7-3.6-1-6.3-.7-6.4-1-7.9-4.5-23-1.1-5-2.8-11.7-3.7-15-.8-3.3-1.7-6.5-1.8-7-1.1-4.7-7.7-24.2-11.3-33.5-5-12.9-19.9-43.8-26.3-54.5-6.2-10.5-6.1-10.3-12.4-20-6-9-23.9-33.1-26.1-35-1.5-1.4-11.5-13.2-11.5-13.7 0-.2 14.5-.3 32.3-.3 17.7 0 34.5-.3 37.2-.8 17.7-3.1 31.9-18.8 32.9-36.4.5-9.6-4.3-36.4-11.4-63.6-2.2-8.3-4.2-15.9-4.4-16.7-.2-.8-2.4-7.6-4.9-15-20.6-62.1-53.8-120.2-97-169.7-15.9-18.3-39.6-41.6-54.7-53.9-1.9-1.6-3.7-3.1-4-3.5-.3-.3-7-5.5-15-11.6-31.1-23.7-64.1-43.1-102.5-60.3l-5-2.2 9-2.4c5-1.3 10.3-2.6 12-2.9 5.1-1 17.1-5.3 21.1-7.6 2.2-1.2 21.3-10.9 42.5-21.5 36.5-18.3 39-19.7 43.8-25 11.3-12.4 13.8-28.3 6.8-44.4-3-6.9-6-9.7-38.1-35.4-3.9-3-10.1-8.1-14.1-11.3-12.4-10.2-39.6-30.5-49.5-36.9-4.1-2.7-7.7-5.1-8-5.4-.3-.3-1.4-1-2.5-1.7-1.1-.6-7.2-4.3-13.5-8.1-21.9-13.3-42.9-24.2-64.5-33.6-7.1-3.1-13.9-6.1-15-6.6-9.8-4.5-35.4-13.3-64-22-2.7-.8-17.3-4.6-21.7-5.6-1-.2-2.8-.6-4-.9-1.3-.4-4.9-1.1-8-1.7-3.2-.6-5.8-1.4-5.8-1.8 0-.3 1.9-1.7 4.2-3.1 2.3-1.3 5.8-3.4 7.7-4.6 5.4-3.3 23.4-13.4 33.6-18.8 15.4-8.2 21-14 25.1-26.3 4-11.6 1.9-24.7-5.4-35.4-6.7-9.7-35-28.9-63.2-42.8-24.9-12.3-62.2-24.9-90.5-30.6-3.8-.8-8.1-1.7-9.5-2-2.1-.4-13.4-2.2-24.6-3.9-1.7-.2-5.7-.7-9-1-3.2-.4-7.5-.8-9.4-1-20.4-2.5-69.6-2.5-93.5.1-5.5.6-26.6 3.3-30.5 3.9-7.3 1.2-9.7 1.6-12 2-1.4.3-3.4.7-4.5.9-1.1.2-5.6 1.2-10 2.1-4.4.9-8.8 1.8-9.7 2-4.7 1-30.3 7.9-37.3 10.2-13.4 4.2-15.6 5-27.5 9.3-17.4 6.4-36.7 14.8-54.5 23.7-18.4 9.2-19.2 9.6-38.4 21.2-7.9 4.7-15.2 9-16.2 9.6-1.1.5-1.9 1.3-1.9 1.7 0 .5-.4.8-1 .8-3.3 0-52.1 36.8-66 49.7-4.5 4.1-7.9 6-8.8 4.7-.4-.5-3.6-3.4-7.2-6.4-3.6-3-6.7-5.8-7-6.1-1.3-1.5-20.8-16.5-30.8-23.8-27.7-20-50-33.6-79.7-48.6-24-12.1-26.1-13-47.5-21.5-27.3-10.8-68.7-23.3-91-27.3-6.6-1.2-14.7-2.8-17-3.2-1.3-.3-4.2-.7-6.5-1-2.2-.3-5.1-.8-6.5-1-1.4-.2-4.9-.7-7.9-1-3-.4-6.1-.8-7-1-.9-.1-5.2-.6-9.6-1-4.4-.4-9.8-.9-12-1.2-5-.5-64.2-1.3-64.7-.8z"/></svg>